<svg width="20" height="23" viewBox="0 0 20 23" fill="none" xmlns="http://www.w3.org/2000/svg">
<path d="M15.3909 0.868331C14.2646 0.292179 13.0166 -0.00556096 11.7515 6.50102e-05C10.4864 0.005691 9.24119 0.314518 8.12011 0.900665C5.45384 2.20613 3.26788 4.32037 1.87397 6.94187C0.390702 9.52072 -0.237154 12.5035 0.0805813 15.4618C0.183043 16.7209 0.585219 17.9371 1.25352 19.009C1.92181 20.0809 2.83683 20.9774 3.92214 21.6234C4.8071 22.0886 5.77589 22.3725 6.77183 22.4586C7.76777 22.5448 8.77086 22.4315 9.72243 22.1252C13.0506 21.0185 15.8179 18.6606 17.4391 15.5499C20.5992 9.82458 19.6762 3.23658 15.3909 0.868331ZM1.24579 15.309C0.963574 12.6022 1.54034 9.87539 2.89434 7.51503C4.16628 5.1085 6.16765 3.16683 8.61135 1.96854C9.0326 1.77492 9.46758 1.6127 9.91274 1.48322C10.7162 1.22103 11.5639 1.12185 12.4062 1.1915C13.2485 1.26115 14.0685 1.49822 14.818 1.88883C14.8778 1.91876 14.9337 1.956 14.9844 1.99968C14.4576 2.81126 13.7823 3.51593 12.9938 4.07662C11.8583 4.8978 10.9303 5.97293 10.2838 7.21634C9.576 8.42591 9.16048 9.78415 9.07036 11.1828C9.00156 12.4263 8.63356 13.6348 7.99765 14.7055C7.42612 15.8113 6.60032 16.7655 5.58816 17.4898C4.71822 18.1147 3.97002 18.8937 3.38056 19.7881C2.16478 18.5924 1.40896 17.0065 1.24579 15.309ZM16.4075 14.98C13.5591 20.1389 8.2148 22.6578 4.49506 20.6029C4.43384 20.5705 4.37453 20.5346 4.31744 20.4953C4.85015 19.6839 5.52893 18.9786 6.31925 18.4152C7.44912 17.5878 8.37587 16.5142 9.0293 15.2754C9.73424 14.0646 10.1495 12.7071 10.2427 11.309C10.3115 10.0654 10.6795 8.85694 11.3154 7.78625C11.8828 6.67765 12.7093 5.72251 13.7249 5.00201C14.5883 4.37093 15.3311 3.5897 15.918 2.69561C18.6497 5.22117 18.9509 10.3733 16.4075 14.98Z" fill="black"/>
</svg>
