<svg width="39" height="44" viewBox="0 0 39 44" fill="none" xmlns="http://www.w3.org/2000/svg">
<path d="M31.2669 20.4576C30.1405 19.8814 28.8925 19.5837 27.6275 19.5893C26.3624 19.595 25.1172 19.9038 23.9961 20.4899C21.3298 21.7954 19.1439 23.9096 17.7499 26.5311C16.2667 29.11 15.6388 32.0928 15.9566 35.0511C16.059 36.3101 16.4612 37.5264 17.1295 38.5983C17.7978 39.6702 18.7128 40.5666 19.7981 41.2127C20.6831 41.6778 21.6519 41.9617 22.6478 42.0479C23.6437 42.1341 24.6468 42.0207 25.5984 41.7145C28.9266 40.6078 31.6939 38.2498 33.3151 35.1392C36.4752 29.4138 35.5522 22.8258 31.2669 20.4576ZM17.1218 34.8983C16.8396 32.1915 17.4163 29.4647 18.7703 27.1043C20.0423 24.6978 22.0436 22.7561 24.4873 21.5578C24.9086 21.3642 25.3436 21.202 25.7887 21.0725C26.5922 20.8103 27.4399 20.7111 28.2822 20.7808C29.1245 20.8504 29.9444 21.0875 30.694 21.4781C30.7538 21.508 30.8097 21.5453 30.8603 21.5889C30.3336 22.4005 29.6582 23.1052 28.8698 23.6659C27.7343 24.4871 26.8063 25.5622 26.1598 26.8056C25.452 28.0152 25.0365 29.3734 24.9463 30.7721C24.8775 32.0156 24.5095 33.2241 23.8736 34.2948C23.3021 35.4005 22.4763 36.3548 21.4641 37.079C20.5942 37.704 19.846 38.4829 19.2565 39.3774C18.0408 38.1817 17.2849 36.5958 17.1218 34.8983ZM32.2835 34.5693C29.4351 39.7282 24.0908 42.2471 20.371 40.1922C20.3098 40.1598 20.2505 40.1239 20.1934 40.0846C20.7261 39.2732 21.4049 38.5678 22.1952 38.0044C23.3251 37.1771 24.2518 36.1034 24.9053 34.8647C25.6102 33.6539 26.0255 32.2963 26.1187 30.8982C26.1875 29.6547 26.5555 28.4462 27.1914 27.3755C27.7587 26.2669 28.5853 25.3118 29.6009 24.5913C30.4643 23.9602 31.2071 23.179 31.794 22.2849C34.5257 24.8104 34.8269 29.9626 32.2835 34.5693Z" fill="black"/>
<path d="M18.7655 2.63783C17.6391 2.06168 16.3911 1.76394 15.126 1.76957C13.8609 1.77519 12.6157 2.08402 11.4946 2.67017C8.82835 3.97563 6.64239 6.08987 5.24848 8.71137C3.76521 11.2902 3.13736 14.273 3.45509 17.2313C3.55756 18.4904 3.95973 19.7066 4.62803 20.7785C5.29633 21.8504 6.21134 22.7469 7.29665 23.3929C8.18161 23.8581 9.1504 24.142 10.1463 24.2281C11.1423 24.3143 12.1454 24.201 13.0969 23.8947C16.4251 22.788 19.1924 20.4301 20.8136 17.3194C23.9738 11.5941 23.0508 5.00608 18.7655 2.63783ZM4.6203 17.0785C4.33809 14.3717 4.91485 11.6449 6.26885 9.28453C7.54079 6.878 9.54216 4.93633 11.9859 3.73805C12.4071 3.54442 12.8421 3.3822 13.2873 3.25272C14.0907 2.99053 14.9384 2.89135 15.7807 2.961C16.623 3.03065 17.443 3.26772 18.1925 3.65833C18.2524 3.68826 18.3082 3.7255 18.3589 3.76919C17.8321 4.58076 17.1568 5.28544 16.3684 5.84612C15.2328 6.6673 14.3048 7.74244 13.6583 8.98584C12.9505 10.1954 12.535 11.5537 12.4449 12.9523C12.3761 14.1958 12.0081 15.4043 11.3722 16.475C10.8006 17.5808 9.97483 18.535 8.96267 19.2593C8.09273 19.8842 7.34453 20.6632 6.75507 21.5576C5.53929 20.3619 4.78347 18.776 4.6203 17.0785ZM19.782 16.7495C16.9336 21.9084 11.5893 24.4273 7.86957 22.3724C7.80835 22.34 7.74905 22.3041 7.69195 22.2648C8.22466 21.4534 8.90344 20.7481 9.69376 20.1847C10.8236 19.3573 11.7504 18.2837 12.4038 17.0449C13.1088 15.8341 13.5241 14.4766 13.6172 13.0785C13.686 11.8349 14.054 10.6264 14.6899 9.55575C15.2573 8.44716 16.0839 7.49201 17.0994 6.77151C17.9628 6.14043 18.7056 5.3592 19.2925 4.46511C22.0242 6.99067 22.3254 12.1428 19.782 16.7495Z" fill="black"/>
</svg>
