<svg width="48" height="50" viewBox="0 0 48 50" fill="none" xmlns="http://www.w3.org/2000/svg">
<path d="M40.2669 20.4577C39.1405 19.8815 37.8925 19.5838 36.6275 19.5894C35.3624 19.595 34.1172 19.9038 32.9961 20.49C30.3298 21.7955 28.1439 23.9097 26.7499 26.5312C25.2667 29.11 24.6388 32.0929 24.9566 35.0512C25.059 36.3102 25.4612 37.5264 26.1295 38.5984C26.7978 39.6703 27.7128 40.5667 28.7981 41.2128C29.6831 41.6779 30.6519 41.9618 31.6478 42.048C32.6437 42.1341 33.6468 42.0208 34.5984 41.7145C37.9266 40.6078 40.6939 38.2499 42.3151 35.1392C45.4752 29.4139 44.5522 22.8259 40.2669 20.4577ZM26.1218 34.8984C25.8396 32.1916 26.4163 29.4647 27.7703 27.1044C29.0423 24.6978 31.0436 22.7562 33.4873 21.5579C33.9086 21.3642 34.3436 21.202 34.7887 21.0725C35.5922 20.8104 36.4399 20.7112 37.2822 20.7808C38.1245 20.8505 38.9444 21.0875 39.694 21.4782C39.7538 21.5081 39.8097 21.5453 39.8603 21.589C39.3336 22.4006 38.6582 23.1053 37.8698 23.6659C36.7343 24.4871 35.8063 25.5623 35.1598 26.8057C34.452 28.0152 34.0365 29.3735 33.9463 30.7721C33.8775 32.0157 33.5095 33.2242 32.8736 34.2949C32.3021 35.4006 31.4763 36.3548 30.4641 37.0791C29.5942 37.704 28.846 38.483 28.2565 39.3775C27.0408 38.1817 26.2849 36.5959 26.1218 34.8984ZM41.2835 34.5693C38.4351 39.7282 33.0908 42.2471 29.371 40.1923C29.3098 40.1598 29.2505 40.1239 29.1934 40.0847C29.7261 39.2733 30.4049 38.5679 31.1952 38.0045C32.3251 37.1772 33.2518 36.1035 33.9053 34.8648C34.6102 33.6539 35.0255 32.2964 35.1187 30.8983C35.1875 29.6548 35.5555 28.4463 36.1914 27.3756C36.7587 26.267 37.5853 25.3118 38.6009 24.5913C39.4643 23.9603 40.2071 23.179 40.794 22.2849C43.5257 24.8105 43.8269 29.9626 41.2835 34.5693Z" fill="black"/>
<path d="M27.7655 2.63783C26.6391 2.06168 25.3911 1.76394 24.126 1.76957C22.8609 1.77519 21.6157 2.08402 20.4946 2.67017C17.8284 3.97563 15.6424 6.08987 14.2485 8.71137C12.7652 11.2902 12.1374 14.273 12.4551 17.2313C12.5576 18.4904 12.9597 19.7066 13.628 20.7785C14.2963 21.8504 15.2113 22.7469 16.2966 23.3929C17.1816 23.8581 18.1504 24.142 19.1463 24.2281C20.1423 24.3143 21.1454 24.201 22.0969 23.8947C25.4251 22.788 28.1924 20.4301 29.8136 17.3194C32.9738 11.5941 32.0508 5.00608 27.7655 2.63783ZM13.6203 17.0785C13.3381 14.3717 13.9149 11.6449 15.2688 9.28453C16.5408 6.878 18.5422 4.93633 20.9859 3.73805C21.4071 3.54442 21.8421 3.3822 22.2873 3.25272C23.0907 2.99053 23.9384 2.89135 24.7807 2.961C25.623 3.03065 26.443 3.26772 27.1925 3.65833C27.2524 3.68826 27.3082 3.7255 27.3589 3.76918C26.8321 4.58076 26.1568 5.28543 25.3684 5.84612C24.2329 6.6673 23.3048 7.74244 22.6583 8.98584C21.9505 10.1954 21.535 11.5537 21.4449 12.9523C21.3761 14.1958 21.0081 15.4043 20.3722 16.475C19.8006 17.5808 18.9748 18.535 17.9627 19.2593C17.0927 19.8842 16.3445 20.6632 15.7551 21.5576C14.5393 20.3619 13.7835 18.776 13.6203 17.0785ZM28.782 16.7495C25.9336 21.9084 20.5893 24.4273 16.8696 22.3724C16.8083 22.34 16.749 22.3041 16.692 22.2648C17.2247 21.4534 17.9034 20.7481 18.6938 20.1847C19.8236 19.3573 20.7504 18.2837 21.4038 17.0449C22.1088 15.8341 22.5241 14.4766 22.6172 13.0785C22.686 11.8349 23.054 10.6264 23.69 9.55575C24.2573 8.44715 25.0839 7.49201 26.0994 6.77151C26.9628 6.14043 27.7056 5.3592 28.2925 4.46511C31.0242 6.99067 31.3254 12.1428 28.782 16.7495Z" fill="black"/>
<path d="M18.7655 26.6379C17.6391 26.0617 16.3911 25.764 15.126 25.7696C13.8609 25.7753 12.6157 26.0841 11.4946 26.6702C8.82836 27.9757 6.64239 30.0899 5.24848 32.7114C3.76521 35.2903 3.13736 38.2731 3.45509 41.2314C3.55756 42.4904 3.95973 43.7067 4.62803 44.7786C5.29633 45.8505 6.21134 46.7469 7.29665 47.393C8.18161 47.8581 9.1504 48.142 10.1463 48.2282C11.1423 48.3144 12.1454 48.201 13.0969 47.8948C16.4251 46.7881 19.1924 44.4301 20.8136 41.3195C23.9738 35.5941 23.0508 29.0061 18.7655 26.6379ZM4.6203 41.0786C4.33809 38.3718 4.91485 35.645 6.26885 33.2846C7.5408 30.8781 9.54217 28.9364 11.9859 27.7381C12.4071 27.5445 12.8421 27.3823 13.2873 27.2528C14.0907 26.9906 14.9384 26.8914 15.7807 26.9611C16.623 27.0307 17.443 27.2678 18.1925 27.6584C18.2524 27.6883 18.3082 27.7256 18.3589 27.7692C17.8321 28.5808 17.1568 29.2855 16.3684 29.8462C15.2329 30.6674 14.3048 31.7425 13.6583 32.9859C12.9505 34.1955 12.535 35.5537 12.4449 36.9524C12.3761 38.1959 12.0081 39.4044 11.3722 40.4751C10.8006 41.5808 9.97483 42.5351 8.96267 43.2593C8.09273 43.8843 7.34453 44.6632 6.75507 45.5577C5.53929 44.362 4.78347 42.7761 4.6203 41.0786ZM19.782 40.7496C16.9336 45.9085 11.5893 48.4274 7.86957 46.3725C7.80835 46.3401 7.74905 46.3042 7.69195 46.2649C8.22466 45.4535 8.90344 44.7481 9.69376 44.1847C10.8236 43.3574 11.7504 42.2837 12.4038 41.045C13.1088 39.8342 13.5241 38.4766 13.6172 37.0785C13.686 35.835 14.054 34.6265 14.69 33.5558C15.2573 32.4472 16.0839 31.4921 17.0994 30.7716C17.9628 30.1405 18.7056 29.3593 19.2925 28.4652C22.0242 30.9907 22.3254 36.1429 19.782 40.7496Z" fill="black"/>
</svg>
