<svg width="28" height="28" viewBox="0 0 28 28" fill="none" xmlns="http://www.w3.org/2000/svg">
<path d="M17.5 24.4993V15.1659C17.5 14.8565 17.3771 14.5598 17.1583 14.341C16.9395 14.1222 16.6428 13.9993 16.3333 13.9993H11.6667C11.3572 13.9993 11.0605 14.1222 10.8417 14.341C10.6229 14.5598 10.5 14.8565 10.5 15.1659V24.4993M3.5 11.6659C3.49992 11.3265 3.57389 10.9912 3.71675 10.6833C3.85962 10.3754 4.06793 10.1024 4.32717 9.88326L12.4938 2.88326C12.915 2.52732 13.4486 2.33203 14 2.33203C14.5514 2.33203 15.085 2.52732 15.5062 2.88326L23.6728 9.88326C23.9321 10.1024 24.1404 10.3754 24.2832 10.6833C24.4261 10.9912 24.5001 11.3265 24.5 11.6659V22.1659C24.5 22.7848 24.2542 23.3783 23.8166 23.8158C23.379 24.2534 22.7855 24.4993 22.1667 24.4993H5.83333C5.21449 24.4993 4.621 24.2534 4.18342 23.8158C3.74583 23.3783 3.5 22.7848 3.5 22.1659V11.6659Z" stroke="currentColor" stroke-width="2" stroke-linecap="round" stroke-linejoin="round"/>
</svg>
