<svg width="22" height="24" viewBox="0 0 22 24" fill="none" xmlns="http://www.w3.org/2000/svg">
<path d="M9.07491 21.9001C9.26996 22.2345 9.55049 22.5122 9.88831 22.7053C10.2261 22.8984 10.6093 23 10.9994 23C11.3895 23 11.7727 22.8984 12.1105 22.7053C12.4483 22.5122 12.7288 22.2345 12.9239 21.9001M1.29031 15.6587C1.14515 15.8162 1.04936 16.012 1.01458 16.2224C0.979807 16.4328 1.00754 16.6487 1.09442 16.8438C1.1813 17.0389 1.32357 17.2048 1.50393 17.3213C1.68429 17.4378 1.89496 17.4999 2.11032 17.5001H19.8885C20.1038 17.5001 20.3145 17.4383 20.495 17.322C20.6755 17.2057 20.8179 17.04 20.905 16.845C20.9921 16.6501 21.0201 16.4343 20.9856 16.2238C20.9511 16.0134 20.8556 15.8174 20.7107 15.6598C19.2329 14.1517 17.6662 12.549 17.6662 7.60003C17.6662 5.84959 16.9638 4.17085 15.7135 2.9331C14.4633 1.69536 12.7675 1 10.9994 1C9.23125 1 7.53552 1.69536 6.28525 2.9331C5.03498 4.17085 4.33259 5.84959 4.33259 7.60003C4.33259 12.549 2.76478 14.1517 1.29031 15.6587Z" stroke="#222222" stroke-width="2" stroke-linecap="round" stroke-linejoin="round"/>
</svg>
