<svg width="14" height="16" viewBox="0 0 14 16" fill="none" xmlns="http://www.w3.org/2000/svg">
<path d="M1 2.55591C0.999922 2.28223 1.06948 2.01336 1.20165 1.77647C1.33382 1.53958 1.52392 1.34304 1.75276 1.20671C1.98159 1.07038 2.24107 0.99908 2.50498 1.00001C2.76888 1.00094 3.02789 1.07406 3.25583 1.212L12.2529 6.65453C12.4799 6.79116 12.6684 6.9872 12.7995 7.22305C12.9306 7.45891 12.9998 7.72631 13 7.99855C13.0002 8.27079 12.9316 8.53832 12.8008 8.77441C12.6701 9.0105 12.482 9.20687 12.2551 9.34391L3.25583 14.788C3.02789 14.9259 2.76888 14.9991 2.50498 15C2.24107 15.0009 1.98159 14.9296 1.75276 14.7933C1.52392 14.657 1.33382 14.4604 1.20165 14.2235C1.06948 13.9866 0.999922 13.7178 1 13.4441V2.55591Z" fill="white" stroke="white" stroke-width="2" stroke-linecap="round" stroke-linejoin="round"/>
</svg>
