<svg width="42" height="48" viewBox="0 0 42 48" fill="none" xmlns="http://www.w3.org/2000/svg">
<path d="M37.5 24H14.25V14.3344C14.25 10.6219 17.2219 7.53758 20.9344 7.50008C24.6844 7.46258 27.75 10.5094 27.75 14.2501V15.7501C27.75 16.9969 28.7531 18.0001 30 18.0001H33C34.2469 18.0001 35.25 16.9969 35.25 15.7501V14.2501C35.25 6.37508 28.8281 -0.0280326 20.9531 9.22985e-05C13.0781 0.0282172 6.75 6.51571 6.75 14.3907V24H4.5C2.01562 24 0 26.0157 0 28.5V43.5C0 45.9844 2.01562 48 4.5 48H37.5C39.9844 48 42 45.9844 42 43.5V28.5C42 26.0157 39.9844 24 37.5 24ZM24.75 38.25C24.75 40.3219 23.0719 42 21 42C18.9281 42 17.25 40.3219 17.25 38.25V33.75C17.25 31.6782 18.9281 30 21 30C23.0719 30 24.75 31.6782 24.75 33.75V38.25Z" fill="black"/>
</svg>
