<svg width="22" height="20" viewBox="0 0 22 20" fill="none" xmlns="http://www.w3.org/2000/svg">
<path d="M13 16.0007C13 15.4702 12.7893 14.9615 12.4142 14.5864C12.0391 14.2114 11.5304 14.0007 11 14.0007C10.4696 14.0007 9.96086 14.2114 9.58579 14.5864C9.21071 14.9615 9 15.4702 9 16.0007M13 16.0007C13 17.6575 14.3431 19.0007 16 19.0007C17.6569 19.0007 19 17.6575 19 16.0007C19 14.3438 17.6569 13.0007 16 13.0007C14.3431 13.0007 13 14.3438 13 16.0007ZM9 16.0007C9 17.6575 7.65685 19.0007 6 19.0007C4.34315 19.0007 3 17.6575 3 16.0007C3 14.3438 4.34315 13.0007 6 13.0007C7.65685 13.0007 9 14.3438 9 16.0007ZM18 9.00066L15.89 2.34366C15.7976 2.0778 15.6502 1.83443 15.4573 1.62945C15.2645 1.42448 15.0305 1.26252 14.7708 1.15416C14.511 1.04581 14.2313 0.993495 13.9499 1.00065C13.6686 1.0078 13.3919 1.07425 13.138 1.19566L11.862 1.80566C11.5928 1.93413 11.2983 2.00075 11 2.00066H7.5C7.06434 2.00057 6.64057 2.14274 6.29311 2.40555C5.94565 2.66835 5.6935 3.03743 5.575 3.45666L4 9.00066M1 9.00066H21" stroke="black" stroke-width="2" stroke-linecap="round" stroke-linejoin="round"/>
</svg>
